<svg width="32" height="32" viewBox="0 0 32 32" fill="none" xmlns="http://www.w3.org/2000/svg">
  <defs>
    <linearGradient id="icon-grad" x1="0" y1="0" x2="32" y2="32" gradientUnits="userSpaceOnUse">
      <stop stop-color="#3B82F6"/>
      <stop offset="1" stop-color="#8B5CF6"/>
    </linearGradient>
    <filter id="glow" x="-2" y="-2" width="36" height="36" filterUnits="userSpaceOnUse" color-interpolation-filters="sRGB">
      <feGaussianBlur stdDeviation="1" result="blur"/>
      <feComposite in="SourceGraphic" in2="blur" operator="over"/>
    </filter>
  </defs>
  <!-- Main Pen Shape -->
  <path d="M24 4L28 8L12 24L6 26L8 20L24 4Z" fill="url(#icon-grad)" filter="url(#glow)"/>
  <path d="M24 4L28 8L12 24L6 26L8 20L24 4Z" stroke="white" stroke-width="1.5" stroke-linecap="round" stroke-linejoin="round"/>
  <!-- AI Sparkles -->
  <path d="M22 14L23 11L26 10L23 9L22 6L21 9L18 10L21 11L22 14Z" fill="white" opacity="0.9">
    <animate attributeName="opacity" values="0.4;1;0.4" dur="2s" repeatCount="indefinite" />
  </path>
  <path d="M10 20L10.5 18.5L12 18L10.5 17.5L10 16L9.5 17.5L8 18L9.5 18.5L10 20Z" fill="white" opacity="0.7">
    <animate attributeName="opacity" values="0.7;0.2;0.7" dur="3s" repeatCount="indefinite" />
  </path>
</svg>
